<?xml version="1.0" encoding="utf-8"?>
<!-- Generator: Adobe Illustrator 25.3.1, SVG Export Plug-In . SVG Version: 6.00 Build 0)  -->
<svg version="1.1" id="Layer_1" xmlns="http://www.w3.org/2000/svg" xmlns:xlink="http://www.w3.org/1999/xlink" x="0px" y="0px"
	 viewBox="0 0 100 100" style="enable-background:new 0 0 100 100;" xml:space="preserve">
<style type="text/css">
	.st0{fill:#079247;}
</style>
<g>
	<path class="st0" d="M57.79,42.93c-3.15-3.63-6.83-6.57-9.49-10.54c-0.14,0.16-0.35,0.34-0.5,0.57c-1.57,2.29-3.16,4.57-4.7,6.88
		c-1.14,1.71-2.65,2.59-4.74,2.56c-4.59-0.05-9.19-0.01-13.79-0.06c-2.76-0.03-4.14-1.81-3.32-4.16c0.42-1.22,1.4-1.85,3.1-1.86
		c3.48-0.02,6.96-0.06,10.44,0.01c1.8,0.04,3-0.7,3.93-2.19c2.17-3.49,4.41-6.93,6.64-10.39c0.95-1.48,2.07-2.82,3.75-3.52
		c2.11-0.89,4.2-0.57,5.85,0.87c3.1,2.73,6.02,5.66,9.23,8.72c-0.68,0.04-1.03,0.07-1.38,0.07c-3.89,0-7.78-0.01-11.67-0.02
		c-1.8,0-2.5,0.53-2.68,2.14c0.24,0.03,0.48,0.09,0.72,0.09c5,0.07,10,0.16,15,0.18c1.8,0,3.2,0.61,4.38,1.97
		c1.04,1.2,2.25,2.26,3.36,3.4c3.51,3.59,2.9,8.32-1.47,10.82c-4.56,2.61-9.14,5.19-13.78,7.66c-1.77,0.94-2.62,2.09-2.55,4.19
		c0.14,4.52,0.05,9.04,0.03,13.56c0,0.66-0.07,1.33-0.19,1.98c-0.45,2.38-2.12,3.69-4.57,3.62c-2.28-0.06-3.8-1.49-4.1-3.87
		c-0.06-0.48-0.1-0.96-0.1-1.44c-0.03-6.82-0.04-13.64-0.09-20.45c-0.02-2.86,1.24-4.87,3.76-6.16
		C51.78,46.06,54.73,44.51,57.79,42.93z"/>
	<path class="st0" d="M34.36,55c1.09,1.25,2.22,2.38,3.16,3.65c8.68,11.6,3.25,28.07-10.57,32.43c-3.11,0.98-6.31,1.31-9.3,0.71
		c-6.48-1.3-11.74-4.66-15.05-10.7c-2.3-4.21-3.22-8.74-2.37-13.29c1.12-5.95,4.18-10.99,9.52-14.28c5.98-3.69,12.3-4.2,18.83-1.7
		c1.16,0.44,1.68,0.25,2.25-0.78c0.86-1.55,1.83-3.05,2.83-4.51c0.97-1.41,2.04-1.71,3.31-1.08c1.42,0.71,1.89,1.84,1.12,3.32
		c-0.85,1.64-1.89,3.18-2.85,4.76C34.95,54.03,34.65,54.53,34.36,55z M31.61,59.59c-0.36,0.5-0.7,0.92-0.99,1.38
		c-2.24,3.58-4.46,7.16-6.69,10.74c-0.27,0.44-0.56,0.88-0.9,1.26c-0.9,1-2.08,1.11-3.18,0.34c-1.17-0.82-1.49-2-0.76-3.3
		c0.77-1.39,1.65-2.72,2.49-4.07c1.9-3.08,3.8-6.15,5.71-9.23c-5.92-3.27-14.97-1.65-19.69,5.44c-4.93,7.41-3.09,17.16,4.18,22.21
		c7.1,4.93,17.01,3.23,22.15-3.8C38.72,73.98,37.71,64.23,31.61,59.59z"/>
	<path class="st0" d="M79.38,50.14c10.61,0,21,8.21,20.69,21.36c-0.24,10.26-7.84,20.55-21.38,20.27
		c-12.27-0.26-20.2-9.81-20.25-21.19C58.38,59.26,67.81,50.13,79.38,50.14z M79.18,86.94c8.78,0.05,16.02-6.98,16.09-15.62
		c0.07-9.15-6.89-16.41-15.81-16.47c-8.97-0.06-16.25,7.05-16.29,15.91C63.13,79.7,70.24,86.89,79.18,86.94z"/>
	<path class="st0" d="M81.32,28.08c-0.17,0.37-0.37,1.21-0.87,1.79c-1.2,1.4-2.47,2.75-3.86,3.97c-1.46,1.29-2.67,1.3-4.21,0.11
		c-1.31-1.01-2.53-2.16-3.73-3.31c-2.66-2.57-5.29-5.18-7.89-7.81c-0.54-0.54-0.99-1.2-1.33-1.89c-0.52-1.06-0.33-2.19,0.46-3
		c1.8-1.86,3.7-3.61,5.59-5.37c0.15-0.14,0.65-0.09,0.86,0.06c1.25,0.83,2.59,1.6,3.68,2.62c3.24,3.04,6.38,6.17,9.54,9.29
		C80.43,25.39,81.27,26.3,81.32,28.08z"/>
	<path class="st0" d="M39.83,23.48c-4.41,0.01-7.81-3.38-7.8-7.8c0.01-4.29,3.48-7.78,7.76-7.78c4.21,0,7.81,3.59,7.81,7.78
		C47.61,19.94,44.08,23.47,39.83,23.48z"/>
</g>
</svg>
