<?xml version="1.0" encoding="utf-8"?>
<!-- Generator: Adobe Illustrator 25.3.1, SVG Export Plug-In . SVG Version: 6.00 Build 0)  -->
<svg version="1.1" id="Layer_1" xmlns="http://www.w3.org/2000/svg" xmlns:xlink="http://www.w3.org/1999/xlink" x="0px" y="0px"
	 viewBox="0 0 100 100" style="enable-background:new 0 0 100 100;" xml:space="preserve">
<style type="text/css">
	.st0{fill:#EF4423;}
</style>
<g>
	<g>
		<path class="st0" d="M50.11,34.91c14.17,0,28.35,0,42.52,0c4.58,0,7.36,2.78,7.37,7.37c0,2.06,0.01,4.11,0,6.17
			c-0.02,4.08-2.91,6.95-7,6.96c-0.68,0-1.35,0.03-2.03-0.01c-0.5-0.03-0.67,0.17-0.76,0.65c-1.21,6.65-2.45,13.29-3.68,19.93
			c-0.78,4.21-1.51,8.43-2.37,12.62c-0.88,4.31-4.86,7.26-8.98,7.24c-17.1-0.08-34.21-0.1-51.31,0.01c-4.61,0.03-8.47-3.47-9.22-7.7
			c-1.6-9.01-3.31-18-4.98-27c-0.3-1.63-0.64-3.26-0.88-4.9c-0.1-0.7-0.4-0.87-1.05-0.83c-2.36,0.15-4.39-0.55-5.95-2.39
			c-1.08-1.28-1.59-2.77-1.59-4.44c-0.01-2.25-0.01-4.51,0-6.76c0.02-4.01,2.94-6.91,6.96-6.92C21.48,34.9,35.79,34.91,50.11,34.91z
			 M70.06,72.84c0-3.32,0.03-6.64-0.01-9.97c-0.02-1.98-1.43-3.35-3.29-3.32c-1.81,0.03-3.15,1.44-3.19,3.36
			c-0.01,0.7,0,1.41,0,2.11c0,5.88,0,11.77,0,17.65c0,2.12,1.5,3.61,3.48,3.49c1.75-0.11,2.99-1.5,3-3.44
			C70.07,79.43,70.06,76.14,70.06,72.84z M40.41,72.83c0,3.3-0.01,6.59,0,9.89c0.01,1.97,1.37,3.43,3.19,3.45
			c1.86,0.03,3.29-1.36,3.29-3.33c0.03-6.65,0.03-13.3-0.02-19.95c0-0.66-0.28-1.39-0.64-1.96c-0.75-1.18-2.21-1.64-3.49-1.25
			c-1.4,0.42-2.32,1.64-2.33,3.17C40.39,66.18,40.41,69.51,40.41,72.83z M35.34,72.9c0-3.29,0.01-6.59,0-9.88
			c-0.01-2.04-1.34-3.46-3.24-3.45c-1.88,0-3.22,1.44-3.23,3.47c-0.01,6.56-0.01,13.12,0,19.68c0,2.02,1.37,3.47,3.25,3.46
			c1.88,0,3.21-1.44,3.22-3.48C35.34,79.43,35.34,76.16,35.34,72.9z M58.5,72.85c0-3.27,0.01-6.54,0-9.81
			c0-2.05-1.34-3.48-3.22-3.48c-1.84,0-3.24,1.49-3.24,3.48c0,6.54,0,13.07,0,19.61c0,2.06,1.32,3.5,3.19,3.52
			c1.92,0.02,3.27-1.42,3.27-3.52C58.51,79.39,58.5,76.12,58.5,72.85z"/>
		<path class="st0" d="M79.48,28.85c-3.15,0-6.13,0.01-9.11-0.02c-0.22,0-0.52-0.21-0.64-0.41c-3.2-5.46-6.38-10.94-9.56-16.41
			c-0.31-0.54-0.63-1.07-0.94-1.6c-1.17-2.02-0.53-4.5,1.44-5.66c1.98-1.17,4.45-0.54,5.65,1.49c3.53,6.02,7.03,12.06,10.54,18.09
			C77.7,25.77,78.54,27.23,79.48,28.85z"/>
		<path class="st0" d="M20.76,28.86c0.97-1.67,1.85-3.2,2.73-4.73c3.45-5.94,6.9-11.87,10.35-17.81c1.2-2.07,3.68-2.77,5.69-1.61
			c2,1.16,2.64,3.67,1.44,5.73c-3.46,5.96-6.93,11.92-10.41,17.87c-0.14,0.24-0.49,0.51-0.74,0.51
			C26.87,28.88,23.92,28.86,20.76,28.86z"/>
	</g>
</g>
</svg>
