<?xml version="1.0" encoding="utf-8"?>
<!-- Generator: Adobe Illustrator 25.3.1, SVG Export Plug-In . SVG Version: 6.00 Build 0)  -->
<svg version="1.1" id="Layer_1" xmlns="http://www.w3.org/2000/svg" xmlns:xlink="http://www.w3.org/1999/xlink" x="0px" y="0px"
	 viewBox="0 0 100 100" style="enable-background:new 0 0 100 100;" xml:space="preserve">
<style type="text/css">
	.st0{fill:#676767;}
</style>
<g>
	<g>
		<path class="st0" d="M56.62,80.87c0.02,1.24-1.12,2.37-2.33,2.11c-1.61-0.35-3.2-0.83-4.75-1.36c-1.02-0.35-1.46-1.55-1.13-2.55
			c0.35-1.04,1.35-1.67,2.41-1.41c1.47,0.37,2.93,0.8,4.37,1.26C56.08,79.2,56.61,80,56.62,80.87z"/>
		<path class="st0" d="M34.56,72.89c1.33,0.41,3.06,0.87,4.72,1.5c0.93,0.35,1.26,1.51,0.93,2.45c-0.35,1-1.33,1.67-2.32,1.42
			c-1.54-0.38-3.06-0.82-4.56-1.33c-1-0.34-1.51-1.44-1.27-2.41C32.3,73.54,33.16,72.87,34.56,72.89z"/>
		<path class="st0" d="M70.36,87.74c-1.34-0.42-3.09-0.88-4.78-1.53c-0.91-0.35-1.2-1.56-0.85-2.49c0.36-0.94,1.32-1.59,2.27-1.36
			c1.57,0.39,3.12,0.84,4.65,1.37c0.96,0.33,1.43,1.4,1.2,2.35C72.61,87.08,71.8,87.72,70.36,87.74z"/>
		<path class="st0" d="M18.3,68.16c1.32,0.41,3.04,0.86,4.7,1.49c0.93,0.36,1.25,1.53,0.92,2.46c-0.35,0.99-1.31,1.65-2.33,1.4
			c-1.54-0.37-3.06-0.82-4.55-1.33c-0.98-0.33-1.47-1.37-1.27-2.32C15.97,68.84,16.83,68.15,18.3,68.16z"/>
	</g>
	<g>
		<path class="st0" d="M18.8,11.74C8.98,11.27,0.3,19.37,0.12,29.17c-0.04,2.43,0.65,4.72,1.5,6.95
			c3.67,9.57,8.97,18.28,14.46,26.88c0.86,1.34,2.58,1.32,3.51,0.02c0.76-1.08,1.44-2.22,2.14-3.35c4.38-7.1,8.6-14.29,11.75-22.05
			c1.07-2.64,2.07-5.32,2.09-8.22C35.62,20.38,27.8,12.18,18.8,11.74z M17.81,35.96c-3.93-0.03-7.67-3.79-7.66-7.69
			c0.02-4,3.75-7.68,7.76-7.66c3.95,0.02,7.61,3.75,7.58,7.72C25.48,32.27,21.73,35.99,17.81,35.96z"/>
	</g>
	<g>
		<path class="st0" d="M83.23,36.03c-9.82-0.47-18.5,7.62-18.68,17.42c-0.04,2.43,0.65,4.72,1.5,6.95
			c3.67,9.57,8.97,18.28,14.46,26.88c0.86,1.34,2.58,1.32,3.51,0.02c0.76-1.08,1.44-2.22,2.14-3.35c4.38-7.1,8.6-14.29,11.75-22.05
			c1.07-2.64,2.07-5.32,2.09-8.22C100.05,44.67,92.23,36.46,83.23,36.03z M82.24,60.25c-3.93-0.03-7.67-3.79-7.66-7.69
			c0.02-4,3.75-7.68,7.76-7.66c3.95,0.02,7.61,3.75,7.58,7.72C89.91,56.56,86.16,60.28,82.24,60.25z"/>
	</g>
</g>
</svg>
