<?xml version="1.0" encoding="utf-8"?>
<!-- Generator: Adobe Illustrator 25.3.1, SVG Export Plug-In . SVG Version: 6.00 Build 0)  -->
<svg version="1.1" id="Layer_1" xmlns="http://www.w3.org/2000/svg" xmlns:xlink="http://www.w3.org/1999/xlink" x="0px" y="0px"
	 viewBox="0 0 100 100" style="enable-background:new 0 0 100 100;" xml:space="preserve">
<style type="text/css">
	.st0{fill:#00A99D;}
</style>
<g>
	<g>
		<path class="st0" d="M30.29,59.88c9.12-9.12,18.3-18.31,27.5-27.5c0.42,0.45,0.87,0.92,1.34,1.43
			c-8.68,8.68-17.39,17.39-26.06,26.07c0.47,0.49,0.91,0.93,1.35,1.39c8.7-8.7,17.4-17.4,26.04-26.05c2.4,2.4,4.75,4.75,7.06,7.06
			c-9.1,9.11-18.29,18.29-27.42,27.42C36.87,66.46,33.57,63.17,30.29,59.88z"/>
		<path class="st0" d="M59.2,30.94c0.88-0.91,1.77-1.93,2.77-2.82c1.5-1.33,3.68-1.2,5.1,0.21c1.53,1.52,3.06,3.05,4.58,4.59
			c1.42,1.43,1.54,3.64,0.19,5.15c-0.88,0.98-1.88,1.86-2.78,2.74C65.79,37.53,62.5,34.24,59.2,30.94z"/>
		<path class="st0" d="M27.2,72.8c0.59-3.88,1.16-7.68,1.72-11.39c3.21,3.21,6.44,6.44,9.67,9.67C34.89,71.64,31.1,72.21,27.2,72.8z
			"/>
	</g>
</g>
<path class="st0" d="M50.03,100.06C22.44,100.06,0,77.62,0,50.03S22.44,0,50.03,0c27.59,0,50.03,22.44,50.03,50.03
	S77.62,100.06,50.03,100.06z M50.03,4.55c-25.08,0-45.48,20.4-45.48,45.48c0,25.08,20.4,45.48,45.48,45.48s45.48-20.4,45.48-45.48
	C95.51,24.95,75.11,4.55,50.03,4.55z"/>
</svg>
