<?xml version="1.0" encoding="utf-8"?>
<!-- Generator: Adobe Illustrator 25.3.1, SVG Export Plug-In . SVG Version: 6.00 Build 0)  -->
<svg version="1.1" id="Layer_1" xmlns="http://www.w3.org/2000/svg" xmlns:xlink="http://www.w3.org/1999/xlink" x="0px" y="0px"
	 viewBox="0 0 100 100" style="enable-background:new 0 0 100 100;" xml:space="preserve">
<style type="text/css">
	.st0{fill:#00A99D;}
</style>
<path class="st0" d="M50,0C22.39,0,0,22.39,0,50s22.39,50,50,50s50-22.39,50-50S77.61,0,50,0z M31.43,71.86c0.1,0,0.21,0,0.31,0
	c3.98,0,7.96,0,11.93,0c1.04,0,1.83,0.53,2.17,1.42c0.46,1.23-0.26,2.58-1.54,2.9c-0.07,0.02-0.13,0.04-0.2,0.06
	c-6.1,0-12.21,0-18.31,0c-0.19-0.06-0.4-0.11-0.58-0.19c-0.88-0.42-1.34-1.13-1.34-2.1c-0.01-4.65,0-9.31,0-13.96
	c0-1.24-0.02-2.47,0.01-3.71c0.02-0.92,0.47-1.6,1.31-1.97c0.83-0.36,1.63-0.23,2.32,0.36c0.53,0.46,0.75,1.06,0.74,1.76
	c-0.01,4,0,7.99,0,11.99c0,0.1,0,0.19,0,0.35c0.11-0.11,0.19-0.18,0.26-0.25c4.54-4.54,9.09-9.09,13.62-13.63
	c0.39-0.39,0.81-0.68,1.37-0.77c0.89-0.14,1.76,0.27,2.22,1.05c0.46,0.78,0.4,1.75-0.16,2.45c-0.1,0.13-0.22,0.25-0.34,0.37
	c-4.53,4.53-9.06,9.06-13.59,13.59c-0.07,0.07-0.18,0.11-0.27,0.16C31.38,71.79,31.4,71.82,31.43,71.86z M76.19,44.1
	c-0.03,0.09-0.05,0.19-0.08,0.28c-0.28,1.09-1.27,1.77-2.42,1.64c-1.05-0.11-1.88-1.05-1.89-2.15c-0.01-3.63,0-7.26,0-10.89
	c0-0.51,0-1.01,0-1.59c-0.11,0.11-0.19,0.17-0.26,0.24c-4.56,4.56-9.12,9.12-13.68,13.69c-0.67,0.67-1.45,0.92-2.36,0.62
	c-1.51-0.5-1.97-2.39-0.88-3.57c0.53-0.57,1.1-1.11,1.65-1.67c4.03-4.04,8.06-8.07,12.09-12.1c0.09-0.09,0.19-0.16,0.28-0.24
	c-0.01-0.02-0.02-0.05-0.04-0.07c-0.1,0-0.2,0-0.31,0c-3.99,0-7.99,0-11.98,0c-1.12,0-2-0.71-2.22-1.78
	c-0.26-1.28,0.72-2.55,2.03-2.6c0.12,0,0.25,0,0.37,0c5.73,0,11.46,0.01,17.19-0.01c1.29-0.01,2.26,0.71,2.46,1.9
	c0,0.02,0.02,0.03,0.03,0.04C76.19,31.92,76.19,38.01,76.19,44.1z"/>
</svg>
